<?xml version="1.0" standalone="no"?>
<!DOCTYPE svg PUBLIC "-//W3C//DTD SVG 20010904//EN"
 "http://www.w3.org/TR/2001/REC-SVG-20010904/DTD/svg10.dtd">
<svg version="1.0" xmlns="http://www.w3.org/2000/svg"
 width="1073.000000pt" height="1280.000000pt" viewBox="0 0 1073.000000 1280.000000"
 preserveAspectRatio="xMidYMid meet">
<metadata>
Created by potrace 1.15, written by Peter Selinger 2001-2017
</metadata>
<g transform="translate(0.000000,1280.000000) scale(0.100000,-0.100000)"
fill="#000000" stroke="none">
<path d="M2940 12790 c-1576 -5 -2097 -9 -2135 -18 -188 -45 -300 -111 -391
-227 -48 -63 -78 -129 -105 -233 -19 -76 -20 -147 -31 -3781 -9 -2929 -9
-3713 1 -3749 36 -137 120 -296 201 -385 66 -72 139 -120 236 -154 l79 -28
1724 -3 1723 -2 -6 -98 c-4 -53 -9 -114 -12 -135 -5 -35 -54 -83 -587 -593
-668 -636 -642 -606 -642 -759 0 -72 5 -100 22 -138 45 -97 135 -174 241 -207
l67 -21 2030 6 c1117 4 2054 11 2082 15 121 21 247 120 300 237 50 109 41 259
-20 348 -12 17 -242 244 -512 504 -269 261 -510 493 -534 516 -43 42 -43 43
-62 161 -10 66 -21 131 -24 146 l-4 28 1732 2 c1623 3 1736 4 1791 21 212 63
349 222 396 459 17 87 19 217 29 2108 6 1108 16 2783 22 3723 8 1287 7 1727
-1 1785 -35 229 -137 364 -324 427 -160 53 10 50 -2701 50 -1375 0 -3438 -2
-4585 -5z m3551 -8743 c19 -124 31 -173 45 -188 10 -12 259 -253 552 -537 381
-369 532 -521 532 -536 0 -36 -60 -85 -139 -112 -107 -37 -230 -42 -1506 -54
-621 -6 -1451 -15 -1842 -20 -620 -9 -722 -8 -784 5 -118 25 -170 59 -189 124
l-9 31 572 545 c315 300 581 558 593 574 17 24 23 51 28 138 4 59 9 127 12
150 l6 43 362 3 c198 1 672 2 1051 2 l690 0 26 -168z m1166 -1389 c-14 -112
-98 -221 -195 -252 -49 -15 -938 -23 -3257 -28 -973 -2 -928 -5 -1014 68 -65
56 -87 113 -82 207 l1 29 27 -32 c38 -46 88 -75 168 -96 80 -21 -1 -21 1540
-4 1953 22 2482 30 2543 40 111 19 195 54 237 100 30 33 38 24 32 -32z"/>
<path d="M8185 1910 c-753 -4 -2603 -13 -4110 -19 -1507 -6 -2803 -12 -2880
-14 -131 -2 -143 -4 -185 -29 -25 -14 -57 -39 -72 -55 -14 -15 -230 -336 -480
-713 l-453 -685 3 -105 c1 -58 7 -122 13 -143 15 -58 69 -111 131 -131 49 -15
443 -16 5233 -14 l5180 3 45 21 c25 12 53 30 63 42 27 29 44 111 52 240 l6
113 -172 322 c-424 794 -567 1048 -615 1098 -66 68 -103 79 -255 77 -74 -1
-750 -5 -1504 -8z m1673 -148 c20 -21 70 -99 111 -173 141 -256 250 -456 433
-799 188 -352 201 -384 179 -443 -22 -58 241 -54 -3591 -61 -1939 -3 -4251 -9
-5138 -12 l-1613 -7 -50 52 c-30 31 -48 58 -45 67 3 7 202 311 442 674 312
472 445 665 467 679 32 19 75 20 2372 31 1287 7 3002 15 3810 19 809 4 1721 8
2028 9 l557 2 38 -38z m-9643 -1537 c23 -10 730 -11 3255 -4 1774 4 4082 8
5130 9 1941 1 1912 0 1991 34 14 6 15 0 7 -56 -4 -34 -13 -67 -19 -73 -11 -11
-10325 -21 -10387 -10 -42 8 -58 35 -67 115 l-6 65 33 -34 c18 -19 47 -39 63
-46z"/>
<path d="M5645 1590 c-467 -4 -1633 -13 -2590 -19 -957 -7 -1749 -14 -1760
-16 -14 -3 -135 -171 -379 -531 -283 -416 -357 -531 -349 -543 9 -14 91 -16
799 -14 434 2 1858 6 3165 9 1307 4 2383 10 2390 15 11 6 3 108 -40 546 -29
295 -57 543 -63 550 -8 10 -51 13 -167 11 -86 -1 -538 -5 -1006 -8z m1178
-549 c26 -271 47 -495 45 -496 -5 -5 -6210 -26 -6215 -21 -4 4 628 940 651
963 8 8 412 14 1586 23 866 7 1976 16 2465 20 490 3 1009 6 1155 6 l264 -1 49
-494z"/>
<path d="M7470 1588 c-325 -7 -428 -13 -438 -23 -12 -10 -7 -53 28 -256 24
-134 47 -250 53 -256 7 -10 121 -13 507 -13 274 0 505 3 514 6 9 3 16 15 16
25 0 32 -120 502 -132 516 -6 8 -31 12 -67 11 -31 -1 -247 -5 -481 -10z m563
-268 l55 -220 -467 0 -466 0 -36 210 -36 210 91 1 c50 1 213 5 361 8 149 4
309 8 356 9 l87 2 55 -220z"/>
<path d="M8297 1587 c-16 -11 -5 -53 139 -537 87 -292 164 -531 173 -537 11
-10 184 -13 787 -13 425 0 779 3 788 6 9 3 16 14 16 24 0 19 -444 1036 -462
1057 -15 19 -1416 19 -1441 0z m1619 -537 c118 -267 214 -486 214 -487 0 -2
-334 -3 -743 -3 l-743 0 -142 474 c-78 260 -144 481 -148 490 -6 15 47 16 671
14 l678 -3 213 -485z"/>
<path d="M7402 921 c-280 -7 -288 -8 -276 -56 2 -11 17 -94 33 -184 17 -99 34
-167 42 -172 8 -5 39 -7 69 -5 30 3 259 8 507 12 324 5 457 10 469 18 14 11
11 29 -37 192 -29 98 -57 185 -62 192 -10 13 -234 14 -745 3z m745 -191 c23
-79 41 -145 40 -146 -7 -7 -943 -20 -947 -14 -7 11 -53 281 -48 285 3 3 839
23 888 21 22 -1 27 -11 67 -146z"/>
</g>
</svg>
